<svg width="186" height="186" viewBox="0 0 186 186" fill="none" xmlns="http://www.w3.org/2000/svg">
<rect width="186" height="186" rx="93" fill="#0D0C0F"/>
<path d="M125 129V121C125 116.757 123.314 112.687 120.314 109.686C117.313 106.686 113.243 105 109 105H77C72.7565 105 68.6869 106.686 65.6863 109.686C62.6857 112.687 61 116.757 61 121V129" stroke="#FF859B" stroke-width="8" stroke-linecap="round" stroke-linejoin="round"/>
<path d="M93 89C101.837 89 109 81.8366 109 73C109 64.1634 101.837 57 93 57C84.1634 57 77 64.1634 77 73C77 81.8366 84.1634 89 93 89Z" stroke="#FF859B" stroke-width="8" stroke-linecap="round" stroke-linejoin="round"/>
</svg>
